<?xml version="1.0" encoding="UTF-8"?>
<svg xmlns="http://www.w3.org/2000/svg" xmlns:xlink="http://www.w3.org/1999/xlink" width="600" height="400" viewBox="0 0 600 400">
<defs>
<g>
<g id="glyph-0-0">
<path d="M 0.269531 -1.664062 C 0.269531 -1.886719 0.265625 -2.074219 0.25 -2.222656 L 0.585938 -2.222656 C 0.597656 -2.105469 0.605469 -1.972656 0.605469 -1.828125 L 0.617188 -1.828125 C 0.675781 -1.964844 0.769531 -2.070312 0.898438 -2.148438 C 1.023438 -2.226562 1.167969 -2.265625 1.324219 -2.265625 C 1.480469 -2.265625 1.617188 -2.226562 1.730469 -2.148438 C 1.84375 -2.066406 1.917969 -1.957031 1.957031 -1.8125 C 2.019531 -1.953125 2.113281 -2.0625 2.238281 -2.144531 C 2.367188 -2.226562 2.511719 -2.265625 2.671875 -2.265625 C 2.914062 -2.265625 3.105469 -2.1875 3.242188 -2.03125 C 3.378906 -1.875 3.449219 -1.65625 3.449219 -1.375 L 3.449219 0 L 3.074219 0 L 3.074219 -1.34375 C 3.074219 -1.542969 3.035156 -1.699219 2.949219 -1.804688 C 2.863281 -1.910156 2.742188 -1.964844 2.582031 -1.964844 C 2.425781 -1.964844 2.296875 -1.90625 2.195312 -1.789062 C 2.09375 -1.671875 2.042969 -1.519531 2.042969 -1.335938 L 2.042969 0 L 1.671875 0 L 1.671875 -1.324219 C 1.671875 -1.539062 1.632812 -1.703125 1.554688 -1.804688 C 1.476562 -1.910156 1.363281 -1.964844 1.203125 -1.964844 C 1.105469 -1.964844 1.015625 -1.933594 0.929688 -1.875 C 0.84375 -1.816406 0.773438 -1.738281 0.722656 -1.640625 C 0.671875 -1.542969 0.644531 -1.4375 0.644531 -1.324219 L 0.644531 0 L 0.269531 0 Z "/>
</g>
<g id="glyph-0-1">
<path d="M 0.925781 0.0429688 C 0.707031 0.0429688 0.527344 -0.0195312 0.386719 -0.148438 C 0.246094 -0.273438 0.179688 -0.4375 0.179688 -0.640625 C 0.179688 -0.863281 0.261719 -1.035156 0.429688 -1.15625 C 0.597656 -1.277344 0.835938 -1.335938 1.140625 -1.335938 L 1.601562 -1.335938 L 1.601562 -1.453125 C 1.601562 -1.621094 1.554688 -1.746094 1.46875 -1.832031 C 1.382812 -1.921875 1.253906 -1.964844 1.089844 -1.964844 C 0.957031 -1.964844 0.832031 -1.9375 0.722656 -1.882812 C 0.609375 -1.828125 0.519531 -1.75 0.445312 -1.644531 L 0.253906 -1.875 C 0.355469 -2.003906 0.476562 -2.101562 0.621094 -2.167969 C 0.765625 -2.234375 0.929688 -2.265625 1.105469 -2.265625 C 1.382812 -2.265625 1.601562 -2.199219 1.75 -2.0625 C 1.902344 -1.925781 1.976562 -1.730469 1.976562 -1.476562 L 1.976562 -0.429688 C 1.976562 -0.316406 1.996094 -0.171875 2.03125 0 L 1.703125 0 C 1.675781 -0.0664062 1.65625 -0.171875 1.644531 -0.3125 L 1.636719 -0.3125 C 1.554688 -0.195312 1.449219 -0.105469 1.328125 -0.046875 C 1.207031 0.015625 1.074219 0.0429688 0.925781 0.0429688 Z M 0.980469 -0.253906 C 1.09375 -0.253906 1.199219 -0.273438 1.292969 -0.316406 C 1.386719 -0.359375 1.464844 -0.417969 1.519531 -0.492188 C 1.574219 -0.566406 1.601562 -0.648438 1.601562 -0.738281 L 1.601562 -1.066406 L 1.128906 -1.066406 C 0.941406 -1.066406 0.796875 -1.03125 0.699219 -0.957031 C 0.597656 -0.882812 0.546875 -0.777344 0.546875 -0.640625 C 0.546875 -0.523438 0.585938 -0.425781 0.664062 -0.359375 C 0.742188 -0.289062 0.847656 -0.253906 0.980469 -0.253906 Z "/>
</g>
<g id="glyph-0-2">
<path d="M 2.140625 -0.964844 L 0.542969 -0.964844 C 0.5625 -0.738281 0.628906 -0.566406 0.742188 -0.449219 C 0.855469 -0.332031 1.011719 -0.277344 1.207031 -0.277344 C 1.476562 -0.277344 1.6875 -0.378906 1.84375 -0.589844 L 2.058594 -0.386719 C 1.972656 -0.25 1.851562 -0.144531 1.699219 -0.0703125 C 1.546875 0.0078125 1.378906 0.0429688 1.195312 0.0429688 C 0.867188 0.0429688 0.613281 -0.0546875 0.429688 -0.257812 C 0.25 -0.460938 0.160156 -0.742188 0.160156 -1.105469 C 0.160156 -1.46875 0.25 -1.75 0.433594 -1.957031 C 0.617188 -2.164062 0.867188 -2.265625 1.1875 -2.265625 C 1.484375 -2.265625 1.71875 -2.164062 1.890625 -1.960938 C 2.058594 -1.757812 2.140625 -1.476562 2.140625 -1.109375 Z M 1.796875 -1.277344 C 1.796875 -1.488281 1.738281 -1.65625 1.628906 -1.777344 C 1.519531 -1.898438 1.363281 -1.960938 1.167969 -1.960938 C 0.984375 -1.960938 0.839844 -1.898438 0.730469 -1.773438 C 0.621094 -1.648438 0.558594 -1.472656 0.542969 -1.246094 L 1.796875 -1.246094 Z "/>
</g>
<g id="glyph-0-3">
<path d="M 2.921875 -2.222656 L 2.363281 0 L 2.023438 0 L 1.484375 -1.816406 L 0.945312 0 L 0.605469 0 L 0.0507812 -2.222656 L 0.445312 -2.222656 L 0.804688 -0.515625 L 1.3125 -2.222656 L 1.65625 -2.222656 L 2.164062 -0.515625 L 2.523438 -2.222656 Z "/>
</g>
<g id="glyph-0-4">
<rect x="0" y="0" width="0" height="0" mask="url(#mask-0)"/>
</g>
<g id="glyph-0-5">
<path d="M 0.265625 -1.664062 C 0.265625 -1.945312 0.261719 -2.128906 0.25 -2.222656 L 0.601562 -2.222656 C 0.613281 -2.125 0.617188 -1.992188 0.617188 -1.828125 L 0.632812 -1.828125 C 0.695312 -1.964844 0.796875 -2.070312 0.929688 -2.148438 C 1.066406 -2.226562 1.214844 -2.265625 1.382812 -2.265625 C 1.644531 -2.265625 1.839844 -2.183594 1.96875 -2.011719 C 2.097656 -1.84375 2.164062 -1.59375 2.164062 -1.257812 L 2.164062 0 L 1.785156 0 L 1.785156 -1.261719 C 1.785156 -1.5 1.746094 -1.675781 1.667969 -1.792969 C 1.585938 -1.90625 1.464844 -1.964844 1.300781 -1.964844 C 1.175781 -1.964844 1.066406 -1.933594 0.964844 -1.867188 C 0.863281 -1.804688 0.785156 -1.714844 0.730469 -1.601562 C 0.671875 -1.488281 0.644531 -1.359375 0.644531 -1.21875 L 0.644531 0 L 0.265625 0 Z "/>
</g>
<g id="glyph-0-6">
<path d="M 1.050781 0.0429688 C 0.792969 0.0429688 0.601562 -0.0390625 0.46875 -0.203125 C 0.335938 -0.371094 0.269531 -0.613281 0.269531 -0.9375 L 0.269531 -2.222656 L 0.648438 -2.222656 L 0.648438 -0.933594 C 0.648438 -0.484375 0.808594 -0.257812 1.128906 -0.257812 C 1.253906 -0.257812 1.367188 -0.289062 1.464844 -0.351562 C 1.566406 -0.417969 1.644531 -0.507812 1.703125 -0.621094 C 1.757812 -0.734375 1.785156 -0.863281 1.785156 -1.003906 L 1.785156 -2.222656 L 2.164062 -2.222656 L 2.164062 -0.472656 C 2.164062 -0.324219 2.175781 -0.164062 2.203125 0 L 1.859375 0 C 1.832031 -0.128906 1.816406 -0.261719 1.8125 -0.394531 L 1.800781 -0.394531 C 1.734375 -0.257812 1.636719 -0.152344 1.5 -0.0742188 C 1.363281 0.00390625 1.214844 0.0429688 1.050781 0.0429688 Z M 0.65625 -3.109375 L 1.042969 -3.109375 L 1.390625 -2.460938 L 1.089844 -2.460938 Z "/>
</g>
<g id="glyph-0-7">
<path d="M 2.132812 -2.222656 L 2.132812 -0.0703125 C 2.132812 0.285156 2.046875 0.554688 1.871094 0.738281 C 1.695312 0.921875 1.441406 1.011719 1.101562 1.011719 C 0.953125 1.011719 0.808594 0.996094 0.667969 0.960938 C 0.527344 0.925781 0.402344 0.875 0.289062 0.808594 L 0.414062 0.535156 C 0.636719 0.640625 0.859375 0.691406 1.089844 0.691406 C 1.550781 0.691406 1.78125 0.417969 1.78125 -0.128906 L 1.78125 -0.332031 C 1.722656 -0.21875 1.632812 -0.132812 1.511719 -0.0664062 C 1.390625 0 1.25 0.03125 1.097656 0.03125 C 0.804688 0.03125 0.574219 -0.0742188 0.40625 -0.285156 C 0.234375 -0.496094 0.152344 -0.78125 0.152344 -1.148438 C 0.152344 -1.496094 0.234375 -1.769531 0.398438 -1.96875 C 0.566406 -2.167969 0.792969 -2.265625 1.085938 -2.265625 C 1.238281 -2.265625 1.375 -2.234375 1.492188 -2.171875 C 1.609375 -2.109375 1.699219 -2.019531 1.769531 -1.902344 L 1.777344 -1.902344 L 1.820312 -2.222656 Z M 1.753906 -1.257812 C 1.753906 -1.484375 1.703125 -1.660156 1.59375 -1.785156 C 1.488281 -1.914062 1.339844 -1.976562 1.152344 -1.976562 C 0.957031 -1.976562 0.808594 -1.902344 0.695312 -1.753906 C 0.585938 -1.605469 0.527344 -1.398438 0.527344 -1.136719 C 0.527344 -0.863281 0.582031 -0.652344 0.691406 -0.5 C 0.800781 -0.347656 0.957031 -0.269531 1.152344 -0.269531 C 1.339844 -0.269531 1.488281 -0.328125 1.59375 -0.441406 C 1.703125 -0.554688 1.753906 -0.714844 1.753906 -0.921875 Z "/>
</g>
<g id="glyph-0-8">
<path d="M 1.085938 0.0429688 C 0.796875 0.0429688 0.570312 -0.0625 0.402344 -0.277344 C 0.234375 -0.488281 0.152344 -0.78125 0.152344 -1.152344 C 0.152344 -1.375 0.191406 -1.574219 0.265625 -1.738281 C 0.34375 -1.90625 0.453125 -2.035156 0.59375 -2.128906 C 0.738281 -2.222656 0.902344 -2.265625 1.09375 -2.265625 C 1.367188 -2.265625 1.585938 -2.152344 1.75 -1.925781 L 1.761719 -1.925781 L 1.761719 -3.296875 L 2.132812 -3.296875 L 2.132812 -0.558594 C 2.132812 -0.285156 2.136719 -0.0976562 2.148438 0 L 1.800781 0 C 1.792969 -0.0703125 1.792969 -0.1875 1.792969 -0.351562 L 1.78125 -0.351562 C 1.714844 -0.234375 1.617188 -0.136719 1.488281 -0.0625 C 1.359375 0.0078125 1.226562 0.0429688 1.085938 0.0429688 Z M 1.136719 -0.257812 C 1.328125 -0.257812 1.476562 -0.316406 1.589844 -0.429688 C 1.699219 -0.542969 1.753906 -0.695312 1.753906 -0.890625 L 1.753906 -1.292969 C 1.753906 -1.5 1.699219 -1.667969 1.585938 -1.792969 C 1.472656 -1.917969 1.324219 -1.976562 1.136719 -1.976562 C 0.949219 -1.976562 0.800781 -1.90625 0.691406 -1.757812 C 0.582031 -1.609375 0.527344 -1.40625 0.527344 -1.140625 C 0.527344 -0.867188 0.582031 -0.648438 0.691406 -0.492188 C 0.800781 -0.335938 0.949219 -0.257812 1.136719 -0.257812 Z "/>
</g>
<g id="glyph-0-9">
<path d="M 1.074219 0.0429688 C 0.878906 0.0429688 0.726562 -0.0195312 0.613281 -0.144531 C 0.5 -0.269531 0.445312 -0.445312 0.445312 -0.667969 L 0.445312 -1.929688 L 0.0429688 -1.929688 L 0.0429688 -2.222656 L 0.445312 -2.222656 L 0.445312 -2.8125 L 0.804688 -2.925781 L 0.820312 -2.925781 L 0.820312 -2.222656 L 1.453125 -2.222656 L 1.453125 -1.929688 L 0.820312 -1.929688 L 0.820312 -0.703125 C 0.820312 -0.550781 0.851562 -0.4375 0.90625 -0.367188 C 0.960938 -0.292969 1.050781 -0.257812 1.167969 -0.257812 C 1.296875 -0.257812 1.398438 -0.273438 1.480469 -0.308594 L 1.507812 -0.0273438 C 1.410156 0.0195312 1.265625 0.0429688 1.074219 0.0429688 Z "/>
</g>
<g id="glyph-0-10">
<path d="M 1.050781 0.0429688 C 0.792969 0.0429688 0.601562 -0.0390625 0.46875 -0.203125 C 0.335938 -0.371094 0.269531 -0.613281 0.269531 -0.9375 L 0.269531 -2.222656 L 0.648438 -2.222656 L 0.648438 -0.933594 C 0.648438 -0.484375 0.808594 -0.257812 1.128906 -0.257812 C 1.253906 -0.257812 1.367188 -0.289062 1.464844 -0.351562 C 1.566406 -0.417969 1.644531 -0.507812 1.703125 -0.621094 C 1.757812 -0.734375 1.785156 -0.863281 1.785156 -1.003906 L 1.785156 -2.222656 L 2.164062 -2.222656 L 2.164062 -0.472656 C 2.164062 -0.324219 2.175781 -0.164062 2.203125 0 L 1.859375 0 C 1.832031 -0.128906 1.816406 -0.261719 1.8125 -0.394531 L 1.800781 -0.394531 C 1.734375 -0.257812 1.636719 -0.152344 1.5 -0.0742188 C 1.363281 0.00390625 1.214844 0.0429688 1.050781 0.0429688 Z "/>
</g>
</g>
<image id="source-9" x="0" y="0" width="0" height="0"/>
<mask id="mask-0">
<use xlink:href="#source-9"/>
</mask>
</defs>
<g fill="rgb(100%, 100%, 100%)" fill-opacity="1">
<use xlink:href="#glyph-0-0" x="30" y="24.746094"/>
<use xlink:href="#glyph-0-1" x="34" y="24.746094"/>
<use xlink:href="#glyph-0-1" x="36" y="24.746094"/>
<use xlink:href="#glyph-0-2" x="38" y="24.746094"/>
<use xlink:href="#glyph-0-3" x="40" y="24.746094"/>
<use xlink:href="#glyph-0-4" x="43" y="24.746094"/>
<use xlink:href="#glyph-0-5" x="44" y="24.746094"/>
<use xlink:href="#glyph-0-6" x="46" y="24.746094"/>
<use xlink:href="#glyph-0-2" x="48" y="24.746094"/>
<use xlink:href="#glyph-0-5" x="50" y="24.746094"/>
<use xlink:href="#glyph-0-7" x="52" y="24.746094"/>
<use xlink:href="#glyph-0-4" x="54" y="24.746094"/>
<use xlink:href="#glyph-0-8" x="55" y="24.746094"/>
<use xlink:href="#glyph-0-9" x="57" y="24.746094"/>
<use xlink:href="#glyph-0-10" x="59" y="24.746094"/>
<use xlink:href="#glyph-0-1" x="61" y="24.746094"/>
</g>
</svg>
