<?xml version="1.0" encoding="UTF-8"?>
<svg xmlns="http://www.w3.org/2000/svg" xmlns:xlink="http://www.w3.org/1999/xlink" width="1080" height="1920" viewBox="0 0 1080 1920">
<defs>
<g>
<g id="glyph-0-0">
<path d="M 3.25 0.121094 C 2.625 0.121094 2.136719 -0.0507812 1.785156 -0.390625 C 1.433594 -0.734375 1.257812 -1.214844 1.257812 -1.832031 L 1.257812 -4.949219 L 0.148438 -4.949219 L 0.148438 -6.109375 L 1.257812 -6.109375 L 1.257812 -7.6875 L 2.773438 -8.128906 L 2.824219 -8.128906 L 2.824219 -6.109375 L 4.597656 -6.109375 L 4.597656 -4.949219 L 2.824219 -4.949219 L 2.824219 -2.066406 C 2.824219 -1.714844 2.90625 -1.457031 3.066406 -1.296875 C 3.230469 -1.132812 3.480469 -1.050781 3.8125 -1.050781 C 4.132812 -1.050781 4.429688 -1.101562 4.707031 -1.199219 L 4.777344 -0.132812 C 4.410156 0.0390625 3.902344 0.121094 3.25 0.121094 Z "/>
</g>
<g id="glyph-0-1">
<path d="M 6.246094 -2.480469 L 1.992188 -2.480469 C 2.121094 -1.617188 2.625 -1.1875 3.496094 -1.1875 C 3.855469 -1.1875 4.164062 -1.246094 4.429688 -1.367188 C 4.695312 -1.492188 4.953125 -1.695312 5.207031 -1.980469 L 6.050781 -1.171875 C 5.8125 -0.78125 5.457031 -0.46875 4.980469 -0.230469 C 4.503906 0.00390625 3.980469 0.121094 3.410156 0.121094 C 2.457031 0.121094 1.714844 -0.15625 1.1875 -0.714844 C 0.65625 -1.273438 0.390625 -2.046875 0.390625 -3.03125 C 0.390625 -4.023438 0.65625 -4.808594 1.191406 -5.378906 C 1.726562 -5.949219 2.460938 -6.234375 3.398438 -6.234375 C 4.292969 -6.234375 4.992188 -5.953125 5.492188 -5.390625 C 5.996094 -4.828125 6.246094 -4.046875 6.246094 -3.042969 Z M 4.71875 -3.617188 C 4.71875 -4.035156 4.597656 -4.363281 4.355469 -4.601562 C 4.117188 -4.84375 3.785156 -4.960938 3.359375 -4.960938 C 2.976562 -4.960938 2.667969 -4.839844 2.433594 -4.589844 C 2.195312 -4.339844 2.046875 -3.992188 1.980469 -3.542969 L 4.71875 -3.542969 Z "/>
</g>
<g id="glyph-0-2">
<path d="M 2.578125 0.121094 C 2.050781 0.121094 1.582031 0.015625 1.179688 -0.195312 C 0.777344 -0.40625 0.492188 -0.6875 0.328125 -1.039062 L 1.296875 -1.710938 C 1.441406 -1.507812 1.628906 -1.34375 1.859375 -1.222656 C 2.085938 -1.101562 2.316406 -1.039062 2.554688 -1.039062 C 2.832031 -1.039062 3.058594 -1.109375 3.238281 -1.253906 C 3.417969 -1.394531 3.507812 -1.574219 3.507812 -1.785156 C 3.507812 -1.957031 3.441406 -2.09375 3.3125 -2.195312 C 3.183594 -2.296875 2.90625 -2.429688 2.480469 -2.589844 C 1.738281 -2.875 1.21875 -3.164062 0.917969 -3.460938 C 0.617188 -3.753906 0.464844 -4.113281 0.464844 -4.546875 C 0.464844 -5.050781 0.671875 -5.460938 1.082031 -5.769531 C 1.492188 -6.078125 2.042969 -6.234375 2.726562 -6.234375 C 3.183594 -6.234375 3.59375 -6.144531 3.960938 -5.972656 C 4.328125 -5.796875 4.625 -5.546875 4.851562 -5.21875 L 3.949219 -4.546875 C 3.664062 -4.898438 3.277344 -5.074219 2.785156 -5.074219 C 2.542969 -5.074219 2.351562 -5.03125 2.21875 -4.945312 C 2.085938 -4.859375 2.015625 -4.734375 2.015625 -4.570312 C 2.015625 -4.457031 2.046875 -4.363281 2.101562 -4.289062 C 2.160156 -4.214844 2.269531 -4.140625 2.433594 -4.058594 C 2.597656 -3.976562 2.855469 -3.867188 3.214844 -3.726562 C 3.695312 -3.539062 4.066406 -3.359375 4.332031 -3.183594 C 4.597656 -3.007812 4.785156 -2.816406 4.894531 -2.609375 C 5.003906 -2.402344 5.058594 -2.152344 5.058594 -1.859375 C 5.058594 -1.46875 4.957031 -1.121094 4.75 -0.824219 C 4.542969 -0.527344 4.25 -0.296875 3.875 -0.128906 C 3.5 0.0390625 3.066406 0.121094 2.578125 0.121094 Z "/>
</g>
</g>
</defs>
<g fill="rgb(100%, 100%, 100%)" fill-opacity="1">
<use xlink:href="#glyph-0-0" x="30" y="33.053711"/>
<use xlink:href="#glyph-0-1" x="35" y="33.053711"/>
<use xlink:href="#glyph-0-2" x="42" y="33.053711"/>
<use xlink:href="#glyph-0-0" x="47" y="33.053711"/>
</g>
</svg>
